<?xml version="1.0" encoding="UTF-8"?>
<svg version="1.1" xmlns="http://www.w3.org/2000/svg" width="1024" height="1024">
<path d="M0 0 C1.04328461 -0.00281982 2.08656921 -0.00563965 3.16146851 -0.00854492 C4.31579376 -0.00652069 5.47011902 -0.00449646 6.65942383 -0.00241089 C7.86740631 -0.00416321 9.07538879 -0.00591553 10.31997681 -0.00772095 C13.64221462 -0.01137913 16.96439051 -0.01050604 20.28662491 -0.00734186 C23.75618831 -0.00481787 27.22574899 -0.00715591 30.6953125 -0.00872803 C36.5228727 -0.01054961 42.35042024 -0.00814371 48.17797852 -0.00338745 C54.924568 0.00205515 61.67112727 0.00029249 68.41771603 -0.00521386 C74.20029682 -0.00974531 79.98286849 -0.01039538 85.76545048 -0.00777519 C89.22347064 -0.00621259 92.68147659 -0.00601817 96.13949585 -0.00931168 C99.99250471 -0.01272475 103.84547947 -0.00800012 107.69848633 -0.00241089 C109.42997421 -0.00544724 109.42997421 -0.00544724 111.19644165 -0.00854492 C112.76136856 -0.00431519 112.76136856 -0.00431519 114.35791016 0 C115.27010818 0.00037703 116.18230621 0.00075405 117.12214661 0.0011425 C119.17895508 0.12698364 119.17895508 0.12698364 120.17895508 1.12698364 C120.27945253 3.38473709 120.30743861 5.64571048 120.30924034 7.90569878 C120.31118377 8.62645257 120.3131272 9.34720637 120.31512952 10.08980119 C120.32049771 12.53587729 120.31868 14.98189782 120.31698608 17.42797852 C120.31940183 19.18738847 120.32226337 20.94679787 120.32553542 22.70620644 C120.33332242 27.56590169 120.33490965 32.42558285 120.33558655 37.28528357 C120.33742055 42.51828285 120.34502479 47.75127378 120.35206604 52.98426819 C120.36361497 62.06514253 120.37184772 71.146015 120.37818527 80.22689438 C120.38850548 94.60051448 120.40907141 108.97411139 120.43130493 123.34771729 C120.43878595 128.26602737 120.44619964 133.18433756 120.4535923 138.10264778 C120.45544287 139.33210677 120.45729343 140.56156575 120.45920008 141.82828107 C120.48014811 155.83963018 120.49896198 169.85098188 120.5168457 183.86233521 C120.51848389 185.14364229 120.52012207 186.42494937 120.52180989 187.74508394 C120.54802109 208.44876037 120.56670261 229.15243857 120.58343761 249.85612451 C120.60090937 271.12879077 120.62981541 292.40142239 120.66832697 313.67406094 C120.69163483 326.78162836 120.70571323 339.88913924 120.70765461 352.99672754 C120.70977754 362.00489195 120.72281901 371.01300042 120.74413393 380.02113967 C120.75606405 385.20515629 120.76338147 390.38906198 120.75742149 395.57309151 C120.71433806 438.91554185 123.87632964 481.56169902 143.17895508 521.12698364 C143.74356445 522.30091675 143.74356445 522.30091675 144.31958008 523.49856567 C149.75538881 534.69406675 156.0046873 544.69282075 163.79321289 554.3989563 C165.04076162 555.95465572 166.26380357 557.52993177 167.48364258 559.10745239 C176.08067482 570.01907024 186.01267504 579.85996029 197.17895508 588.12698364 C198.2127832 588.90428833 199.24661133 589.68159302 200.31176758 590.48245239 C224.27180682 608.22844261 250.64481677 620.00414921 279.42895508 627.37698364 C280.38648682 627.62351685 281.34401855 627.87005005 282.33056641 628.12405396 C296.91953317 631.72061792 310.94300208 632.49987069 325.90673828 632.49758911 C329.0794161 632.50193293 332.2506652 632.53827999 335.4230957 632.57620239 C353.9744431 632.67908641 371.85022946 630.14544627 389.67895508 624.93948364 C390.7039209 624.64469116 391.72888672 624.34989868 392.78491211 624.0461731 C410.85367438 618.69539145 427.81582101 611.44128216 444.17895508 602.12698364 C445.08500488 601.61635376 445.99105469 601.10572388 446.92456055 600.57962036 C449.72911398 598.98933024 452.51887141 597.37609786 455.30395508 595.75198364 C456.6123938 595.00211182 456.6123938 595.00211182 457.94726562 594.23709106 C458.74817627 593.75989624 459.54908691 593.28270142 460.37426758 592.79104614 C461.08599121 592.37290649 461.79771484 591.95476685 462.53100586 591.5239563 C464.55409481 589.8089763 464.89999968 588.73596095 465.17895508 586.12698364 C462.30674199 578.64839108 456.39753799 572.86058344 450.98364258 567.14260864 C448.34867027 564.34755952 445.90494229 561.42920136 443.49145508 558.43948364 C435.02475093 546.64728448 435.02475093 546.64728448 422.56176758 540.78713989 C414.3331234 540.34899131 408.50758166 542.66299727 401.17895508 546.12698364 C362.98455261 563.43410767 322.45203587 569.2388686 282.17895508 555.12698364 C262.49309188 547.70017793 245.95924026 537.07970548 231.17895508 522.12698364 C230.30110352 521.30133911 230.30110352 521.30133911 229.40551758 520.45901489 C218.74127498 510.3409896 205.14443923 491.47501777 203.95629883 476.27932739 C204.17895508 474.12698364 204.17895508 474.12698364 205.17895508 473.12698364 C208.1994408 473.02543066 211.19728041 472.98987888 214.2183075 472.99568176 C215.65881658 472.99250819 215.65881658 472.99250819 217.12842685 472.98927051 C220.37273848 472.98323994 223.61701154 472.98427283 226.86132812 472.98513794 C229.17683478 472.98210844 231.49234085 472.97858757 233.80784607 472.97460938 C238.80774185 472.96670342 243.80763043 472.96156907 248.80753136 472.95831871 C256.71064326 472.95242362 264.61370976 472.93589728 272.51679993 472.91697693 C275.21924488 472.91061961 277.92168995 472.90431123 280.62413502 472.89799976 C281.63731287 472.89562412 281.63731287 472.89562412 282.67095896 472.89320048 C290.36559713 472.87525173 298.06023837 472.85903206 305.75488281 472.84402466 C306.45852853 472.84264879 307.16217426 472.84127292 307.88714258 472.83985535 C319.28350967 472.81793724 330.67986566 472.80717256 342.0762501 472.79965391 C353.77198895 472.79158203 365.46763255 472.76828758 377.16331702 472.73170024 C383.73189057 472.71190673 390.30029692 472.69954588 396.86890221 472.70453453 C403.04868231 472.70917041 409.22814551 472.69543319 415.40786171 472.66752243 C417.67742498 472.66059224 419.94702088 472.66050362 422.21658325 472.6677227 C425.31299635 472.67657773 428.40835696 472.66097058 431.50468445 472.63923645 C432.40478908 472.64767899 433.30489371 472.65612152 434.23227423 472.6648199 C439.68929008 472.59390129 442.87577265 471.80633981 447.17895508 468.12698364 C449.8419665 464.00543061 450.55607416 460.82123147 450.56713867 455.95730591 C450.57659515 454.75908707 450.58605164 453.56086823 450.59579468 452.32633972 C450.58972198 451.04496628 450.58364929 449.76359283 450.57739258 448.44338989 C450.57941643 447.10109804 450.58233046 445.75880727 450.58609009 444.41651917 C450.59050037 441.60985801 450.58412571 438.80348429 450.57006836 435.99685669 C450.55299333 432.41476022 450.56281449 428.83333905 450.58078575 425.25126743 C450.59167315 422.4809926 450.58815443 419.71087545 450.58040237 416.94059563 C450.57745164 414.98258395 450.58650067 413.02456594 450.59579468 411.0665741 C450.54580616 404.71592914 450.48817314 399.64675154 447.17895508 394.12698364 C440.56029856 389.71454596 433.21828628 389.98267627 425.55610657 390.01345825 C424.59346191 390.01330939 423.63081725 390.01316053 422.63900155 390.01300716 C419.41702684 390.01370102 416.19510932 390.02154038 412.97314453 390.02932739 C410.66188591 390.03124671 408.35062686 390.03271044 406.03936768 390.03375244 C401.06464683 390.03691287 396.08994297 390.0431805 391.11522865 390.05181885 C383.25457002 390.06533078 375.39391705 390.07123296 367.5332489 390.07595825 C356.51825568 390.08314445 345.50326904 390.09340291 334.48828125 390.10647583 C333.78966672 390.10730364 333.09105219 390.10813145 332.37126752 390.10898435 C327.41132992 390.11488587 322.45139248 390.12092058 317.49145508 390.12698364 C311.82047537 390.13391395 306.1494956 390.14078046 300.47851562 390.14749146 C299.43050851 390.14873365 299.43050851 390.14873365 298.36132953 390.15000093 C286.7208693 390.16367646 275.08040912 390.17339932 263.43994302 390.1804018 C255.61978759 390.18539549 247.79965787 390.19527161 239.97951281 390.20883179 C235.12396134 390.21626993 230.26841346 390.21960269 225.41285706 390.22179794 C223.15491715 390.22367629 220.89697794 390.22728971 218.63904381 390.23273087 C215.56629665 390.23990476 212.49360672 390.24098651 209.42085266 390.24050903 C208.06854025 390.24590147 208.06854025 390.24590147 206.6889084 390.25140285 C205.45760203 390.24934133 205.45760203 390.24934133 204.20142078 390.24723816 C203.49193816 390.24815995 202.78245554 390.24908175 202.05147344 390.25003147 C200.17895508 390.12698364 200.17895508 390.12698364 197.17895508 389.12698364 C196.00407588 386.77722525 196.05161645 385.3913451 196.04752731 382.77186871 C196.04368617 381.85135367 196.03984502 380.93083864 196.03588748 379.98242921 C196.03675396 378.96445514 196.03762044 377.94648107 196.03851318 376.8976593 C196.03554206 375.82142046 196.03257094 374.74518161 196.02950978 373.63632947 C196.02079175 370.00584644 196.01931192 366.37539626 196.01782227 362.74490356 C196.0131963 360.15176828 196.00817194 357.55863368 196.0027771 354.96549988 C195.98918264 347.90352607 195.98316728 340.84155792 195.97876644 333.7795732 C195.97600579 329.37167156 195.97176876 324.96377212 195.96726227 320.55587196 C195.95506795 308.3565176 195.94476909 296.15716501 195.94138718 283.95780468 C195.94105783 282.7861227 195.94105783 282.7861227 195.94072182 281.59077038 C195.94050355 280.80775761 195.94028527 280.02474484 195.94006038 279.21800441 C195.93961691 277.63126767 195.93917034 276.04453093 195.9387207 274.45779419 C195.93838856 273.27717457 195.93838856 273.27717457 195.9380497 272.07270405 C195.93410127 259.31772594 195.91664661 246.56280494 195.89336118 233.80784889 C195.86965838 220.71882551 195.85718581 207.62983081 195.85601926 194.54078561 C195.85510187 187.18923446 195.84933365 179.83775772 195.83119965 172.48622704 C195.81420656 165.57274721 195.81253803 158.65941093 195.82133865 151.74591637 C195.82211183 149.20500816 195.81772968 146.66409251 195.8078804 144.12320328 C195.79524459 140.66105128 195.80099241 137.19940677 195.8114624 133.73725891 C195.7993778 132.22033606 195.7993778 132.22033606 195.78704906 130.67276829 C195.84840563 122.02921757 195.84840563 122.02921757 199.17895508 118.12698364 C201.65753756 116.49703035 203.98408885 115.13785084 206.61645508 113.81448364 C207.36362793 113.43058472 208.11080078 113.04668579 208.88061523 112.65115356 C236.21747751 98.91498706 265.79783511 91.13709461 296.17895508 88.12698364 C297.11223633 88.01612427 298.04551758 87.90526489 299.00708008 87.79104614 C382.39159168 78.97611206 464.39963091 114.47227431 528.24780273 165.55081177 C531.55039433 168.24632774 534.72545633 171.05829803 537.84301758 173.96682739 C539.84560328 175.81871684 541.8834857 177.60368591 543.94848633 179.38479614 C548.22011127 183.111287 552.24593607 187.04571234 556.24145508 191.06448364 C556.90983398 191.72899536 557.57821289 192.39350708 558.2668457 193.07815552 C616.30113186 251.22523912 645.23031965 330.16308845 645.42895508 411.62698364 C645.31855171 500.82263115 610.66783397 580.50160663 548.61645508 643.87698364 C543.42509652 649.01620517 537.89292179 653.5867847 532.17895508 658.12698364 C530.40748577 659.6053886 528.63665815 661.08456277 526.86645508 662.56448364 C520.52765138 667.74342113 513.910045 672.47637981 507.17895508 677.12698364 C506.58066895 677.54093384 505.98238281 677.95488403 505.3659668 678.38137817 C461.55926181 708.52425477 410.58055588 728.01536868 357.63061523 733.84915161 C355.64898483 734.07371797 353.67333879 734.35070721 351.70068359 734.64382935 C345.91581766 735.36574306 340.11442296 735.32882235 334.29223633 735.36526489 C333.04057175 735.37333664 331.78890717 735.38140839 330.49931335 735.38972473 C327.84406897 735.40352995 325.18894694 735.41455046 322.53369141 735.42214966 C319.87602765 735.43087065 317.21965161 735.453786 314.56201172 735.4836731 C270.58651029 735.97685114 227.80746319 726.97862635 187.17895508 710.12698364 C186.36442871 709.79118286 185.54990234 709.45538208 184.71069336 709.10940552 C151.38292003 695.19477962 120.80181514 674.6472323 94.39379883 650.09573364 C92.34216387 648.10026576 92.34216387 648.10026576 90.17895508 647.12698364 C90.17895508 646.46698364 90.17895508 645.80698364 90.17895508 645.12698364 C89.61821289 644.89237427 89.0574707 644.65776489 88.47973633 644.41604614 C80.8461188 640.13914668 74.78277394 631.78002816 69.17895508 625.12698364 C68.02266602 623.76960083 68.02266602 623.76960083 66.84301758 622.38479614 C56.32445843 609.92434915 47.05692395 596.79193822 38.17895508 583.12698364 C37.78788574 582.52708618 37.39681641 581.92718872 36.99389648 581.30911255 C16.90107729 550.28142577 4.45899398 513.79854285 -2.00854492 477.56448364 C-2.16347412 476.70419556 -2.31840332 475.84390747 -2.47802734 474.95755005 C-5.12917762 459.31042359 -6.11848138 443.76516076 -6.06828308 427.91699219 C-6.06987601 426.06164495 -6.07234437 424.20629829 -6.07559949 422.35095322 C-6.08194493 417.31068058 -6.07599849 412.27048965 -6.06783521 407.23022246 C-6.06120536 401.77308781 -6.06621787 396.31596153 -6.06971741 390.85882568 C-6.0747366 380.19628745 -6.06914799 369.53378044 -6.05986711 358.87124608 C-6.04944958 346.45448677 -6.04955412 334.03773408 -6.05003969 321.62097122 C-6.05055435 298.81170353 -6.04054394 276.0024511 -6.02553725 253.19318894 C-6.01188503 232.36561685 -6.00567734 211.53805626 -6.00634766 190.71047974 C-6.00638807 189.37043643 -6.00642843 188.03039311 -6.00646874 186.6903498 C-6.00648909 186.02785479 -6.00650944 185.36535977 -6.0065304 184.68278915 C-6.00729051 159.53414946 -6.00164556 134.38551557 -5.99243781 109.23687764 C-5.98941719 100.57437003 -5.98835778 91.9118634 -5.9879055 83.24935532 C-5.98722518 72.712235 -5.98278514 62.17512382 -5.97357269 51.63800739 C-5.96894064 46.25864041 -5.96591441 40.87928518 -5.9671669 35.49991608 C-5.96825592 30.58465457 -5.96478077 25.66941911 -5.95751838 20.75416304 C-5.95569407 18.96805026 -5.95558529 17.18193482 -5.95728566 15.39582191 C-5.95932849 12.98461827 -5.95532674 10.57350183 -5.94967937 8.16230583 C-5.95173469 7.45482588 -5.95379001 6.74734593 -5.95590761 6.01842719 C-5.93131282 0.3443181 -5.59019366 0.00231051 0 0 Z " fill="#FEFEFE" transform="translate(197.821044921875,136.87301635742188)"/>
</svg>
